<?xml version="1.0" encoding="UTF-8"?>
<svg version="1.1" xmlns="http://www.w3.org/2000/svg" width="189" height="204">
<path d="M0 0 C0.80695313 0.67417969 1.61390625 1.34835938 2.4453125 2.04296875 C6.43192505 5.4591496 9.44599962 8.35782321 12 13 C10.67888306 14.21949256 9.35776156 15.43898019 8.03662109 16.65844727 C6.87671565 17.72916712 5.71688626 18.79996935 4.55712891 19.87084961 C1.48906475 22.70357695 -1.58022961 25.53494621 -4.65234375 28.36328125 C-5.2347583 28.89985352 -5.81717285 29.43642578 -6.41723633 29.98925781 C-7.53509548 31.01906258 -8.65340494 32.0483788 -9.7722168 33.07714844 C-12.22823234 35.34066442 -14.66624546 37.60991345 -17 40 C-20.01033512 38.66713024 -21.87638334 37.25580686 -24.0625 34.8125 C-34.5719103 24.07995997 -49.23594299 18.01947193 -64.14501953 17.70751953 C-82.70521374 17.57141365 -98.00311514 21.63824222 -111.78125 34.71875 C-123.48937724 46.75668364 -128.60669782 62.18948525 -128.4375 78.8125 C-128.42992676 79.86203857 -128.42235352 80.91157715 -128.41455078 81.99291992 C-128.0430934 99.55851604 -121.62137741 113.72441375 -109 126 C-95.8889009 137.86242299 -79.24962932 140.81234147 -62.140625 140.34765625 C-47.07168455 139.57538689 -34.55321855 133.19596676 -24.05810547 122.60717773 C-20.4066411 119 -20.4066411 119 -16 119 C-14.15991211 120.31005859 -14.15991211 120.31005859 -12.27734375 122.1484375 C-11.57859131 122.82003906 -10.87983887 123.49164063 -10.15991211 124.18359375 C-9.42651611 124.90675781 -8.69312012 125.62992188 -7.9375 126.375 C-6.41737281 127.84187796 -4.89653842 129.3080234 -3.375 130.7734375 C-2.6325 131.49370117 -1.89 132.21396484 -1.125 132.95605469 C1.72105657 135.69355303 4.6283742 138.35754767 7.5625 141 C8.43003906 141.78375 9.29757813 142.5675 10.19140625 143.375 C10.78824219 143.91125 11.38507813 144.4475 12 145 C10.02941211 147.36470547 8.03585338 149.69211449 6 152 C5.1646875 152.95519531 5.1646875 152.95519531 4.3125 153.9296875 C-12.70135828 172.19025092 -38.93317858 179.90326869 -63.20068359 181.109375 C-94.72910935 182.20482519 -123.04166951 173.57258393 -146.7109375 152.59765625 C-165.51685729 134.74649854 -176.43296737 109.523818 -177.16796875 83.67578125 C-177.48328556 53.75119919 -168.3055505 28.12655359 -147.75 6.3125 C-109.6417862 -30.06352226 -40.72015256 -34.82840888 0 0 Z " fill="#010101" transform="translate(177,23)"/>
<path d="M0 0 C0.66 0.33 1.32 0.66 2 1 C-4.93 7.93 -11.86 14.86 -19 22 C-19 17.83256273 -16.7220201 16.1175327 -14 13.25 C-13.50395264 12.71793945 -13.00790527 12.18587891 -12.49682617 11.63769531 C-8.56892151 7.476431 -4.4406485 3.61359362 0 0 Z " fill="#0D1824" transform="translate(39,21)"/>
</svg>
